<svg width="146.087891" height="3362.000000" viewBox="0 0 146.088 3362" fill="none" xmlns="http://www.w3.org/2000/svg" xmlns:xlink="http://www.w3.org/1999/xlink">
	<desc>
			Created with Pixso.
	</desc>
	<defs/>
	<path id="Star 6" d="M100.16 60.4L74.26 67.27L98.4 78.91L105.27 104.81L116.91 80.68L142.81 73.81L118.68 62.16L111.81 36.26L100.16 60.4ZM111.53 39.13L100.87 61.25L77.13 67.54L99.25 78.21L105.54 101.95L116.21 79.83L139.95 73.53L117.83 62.87L111.53 39.13Z" fill="#BCEC30" fill-opacity="1.000000" fill-rule="evenodd"/>
	<path id="Star 7" d="M43.48 14.31L30.16 17.43L42.31 23.73L45.43 37.04L51.73 24.9L65.04 21.77L52.9 15.48L49.77 2.16L43.48 14.31ZM49.41 5.02L44.15 15.17L33.02 17.79L43.17 23.05L45.79 34.18L51.05 24.03L62.18 21.41L52.03 16.15L49.41 5.02Z" fill="#BCEC30" fill-opacity="1.000000" fill-rule="evenodd"/>
	<path id="Star 8" d="M95.18 3298.18L70 3307.5L95.18 3316.82L104.5 3342L113.81 3316.82L139 3307.5L113.81 3298.18L104.5 3273L95.18 3298.18ZM104.5 3275.88L95.96 3298.96L72.88 3307.5L95.96 3316.04L104.5 3339.12L113.04 3316.04L136.11 3307.5L113.04 3298.96L104.5 3275.88Z" fill="#BCEC30" fill-opacity="1.000000" fill-rule="evenodd"/>
	<path id="Star 10" d="M14.96 3335.96L0 3341.5L14.96 3347.04L20.5 3362L26.03 3347.04L41 3341.5L26.03 3335.96L20.5 3321L14.96 3335.96ZM20.5 3323.88L15.74 3336.74L2.88 3341.5L15.74 3346.26L20.5 3359.12L25.25 3346.26L38.11 3341.5L25.25 3336.74L20.5 3323.88Z" fill="#BCEC30" fill-opacity="1.000000" fill-rule="evenodd"/>
</svg>
