<svg width="451.805664" height="724.610596" viewBox="0 0 451.806 724.611" fill="none" xmlns="http://www.w3.org/2000/svg" xmlns:xlink="http://www.w3.org/1999/xlink">
	<desc>
			Created with Pixso.
	</desc>
	<defs/>
	<path id="Star 2" d="M17.5 200.61L12.77 213.38L0 218.11L12.77 222.83L17.5 235.61L22.22 222.83L35 218.11L22.22 213.38L17.5 200.61Z" fill="#BCEC30" fill-opacity="1.000000" fill-rule="evenodd"/>
	<path id="Star 2" d="M12.77 213.38L0 218.11L12.77 222.83L17.5 235.61L22.22 222.83L35 218.11L22.22 213.38L17.5 200.61L12.77 213.38ZM17.5 203.49L13.55 214.16L2.88 218.11L13.55 222.05L17.5 232.72L21.44 222.05L32.11 218.11L21.44 214.16L17.5 203.49Z" fill="#202027" fill-opacity="1.000000" fill-rule="evenodd"/>
	<path id="Star 3" d="M61.66 175.27L54 178.11L61.66 180.94L64.5 188.61L67.33 180.94L75 178.11L67.33 175.27L64.5 167.61L61.66 175.27ZM64.5 170.49L62.44 176.05L56.88 178.11L62.44 180.16L64.5 185.72L66.55 180.16L72.11 178.11L66.55 176.05L64.5 170.49Z" fill="#202027" fill-opacity="1.000000" fill-rule="evenodd"/>
	<path id="Star 5" d="M244 660.61L241.56 667.18L235 669.61L241.56 672.04L244 678.61L246.43 672.04L253 669.61L246.43 667.18L244 660.61Z" fill="#BCEC30" fill-opacity="1.000000" fill-rule="evenodd"/>
	<path id="Star 5" d="M241.56 667.18L235 669.61L241.56 672.04L244 678.61L246.43 672.04L253 669.61L246.43 667.18L244 660.61L241.56 667.18ZM244 663.49L242.34 667.95L237.88 669.61L242.34 671.26L244 675.72L245.65 671.26L250.11 669.61L245.65 667.95L244 663.49Z" fill="#202027" fill-opacity="1.000000" fill-rule="evenodd"/>
	<path id="Star 4" d="M280.23 698.57L266 704.11L280.23 709.64L285.5 724.61L290.76 709.64L305 704.11L290.76 698.57L285.5 683.61L280.23 698.57ZM285.5 686.62L281.02 699.33L268.75 704.11L281.02 708.88L285.5 721.59L289.97 708.88L302.24 704.11L289.97 699.33L285.5 686.62Z" fill="#202027" fill-opacity="1.000000" fill-rule="evenodd"/>
	<path id="Vector" d="M341.22 113.71C344.07 114.5 423.28 147.53 423.28 147.53L339.24 156.43L392.33 223.68L317.48 177.74L309.85 255.6L288.76 173.61L218.44 212.61L266.88 155.37L180.91 151.5L261.71 127.6L201.67 59.38L286.08 98.56L305.4 22.97L314.08 98.72L390.97 46.47L341.22 113.71Z" fill="#BCEC30" fill-opacity="1.000000" fill-rule="nonzero"/>
	<path id="Vector" d="M423.28 147.53L339.24 156.43L392.33 223.68L317.48 177.74L309.85 255.6L288.76 173.61L218.44 212.61L266.88 155.37L180.91 151.5L261.71 127.6L201.67 59.38L286.08 98.56L305.4 22.97L314.08 98.72L390.97 46.47L341.22 113.71C344.07 114.5 423.28 147.53 423.28 147.53Z" stroke="#202027" stroke-opacity="1.000000" stroke-width="1.000000"/>
</svg>
