<svg width="1074.490234" height="1130.996460" viewBox="0 0 1074.49 1131" fill="none" xmlns="http://www.w3.org/2000/svg" xmlns:xlink="http://www.w3.org/1999/xlink">
	<desc>
			Created with Pixso.
	</desc>
	<defs/>
	<path id="Vector 4780" d="M241.29 323.49L317.5 411.87L0.5 486.49" stroke="#202027" stroke-opacity="1.000000" stroke-width="1.000000" stroke-linecap="round"/>
	<path id="Vector" d="M708.18 381.89C717.6 384.52 980 495.47 980 495.47L701.6 525.34L877.48 751.17L629.53 596.9L604.26 858.35L534.38 583.01L301.44 713.96L461.9 521.74L177.13 508.74L444.8 428.5L245.91 199.41L525.53 330.98L589.53 77.16L618.26 331.53L872.97 156.1L708.18 381.89Z" fill="#BCEC30" fill-opacity="1.000000" fill-rule="nonzero"/>
	<path id="Vector" d="M980 495.47L701.6 525.34L877.48 751.17L629.53 596.9L604.26 858.35L534.38 583.01L301.44 713.96L461.9 521.74L177.13 508.74L444.8 428.5L245.91 199.41L525.53 330.98L589.53 77.16L618.26 331.53L872.97 156.1L708.18 381.89C717.6 384.52 980 495.47 980 495.47Z" stroke="#202027" stroke-opacity="1.000000" stroke-width="1.000000"/>
	<path id="Vector 4781" d="M231.58 587.49L355.5 587.49L213.5 766.49" stroke="#202027" stroke-opacity="1.000000" stroke-width="1.000000" stroke-linecap="round"/>
	<path id="Vector 4782" d="M371.5 791.54L485.26 712.49L591.38 1130.5" stroke="#202027" stroke-opacity="1.000000" stroke-width="1.000000" stroke-linecap="round"/>
	<path id="Vector 4788" d="M449.66 801.49L393.5 860.26L473.5 927.49L449.66 801.49Z" fill="#BCEC30" fill-opacity="1.000000" fill-rule="nonzero"/>
	<path id="Vector 4788" d="M449.66 801.49L473.5 927.49L393.5 860.26L449.66 801.49Z" stroke="#202027" stroke-opacity="1.000000" stroke-width="1.000000"/>
	<path id="Star 14" d="M113 871.48L108 884.99L94.5 889.98L108 894.98L113 908.48L117.99 894.98L131.5 889.98L117.99 884.99L113 871.48Z" fill="#BCEC30" fill-opacity="1.000000" fill-rule="evenodd"/>
	<path id="Star 14" d="M108 884.99L94.5 889.98L108 894.98L113 908.48L117.99 894.98L131.5 889.98L117.99 884.99L113 871.48L108 884.99ZM113 874.36L108.78 885.76L97.38 889.98L108.78 894.2L113 905.6L117.21 894.2L128.61 889.98L117.21 885.76L113 874.36Z" fill="#202027" fill-opacity="1.000000" fill-rule="evenodd"/>
	<path id="Star 16" d="M189.79 931.77L160.94 942.45L159.5 942.98L160.94 943.52L174.64 948.59L189.79 954.19L200.46 983.04L201 984.48L201.53 983.04L212.2 954.19L241.06 943.52L242.5 942.98L241.06 942.45L212.2 931.77L201.53 902.92L201 901.48L200.46 902.92L189.79 931.77ZM201 904.36L190.57 932.55L190.13 932.71L162.38 942.98L174.99 947.65L190.57 953.41L201 981.6L211.43 953.41L239.61 942.98L211.43 932.55L201 904.36Z" fill="#202027" fill-opacity="1.000000" fill-rule="evenodd"/>
</svg>
