<svg width="1864.989746" height="1130.995972" viewBox="0 0 1864.99 1131" fill="none" xmlns="http://www.w3.org/2000/svg" xmlns:xlink="http://www.w3.org/1999/xlink">
	<desc>
			Created with Pixso.
	</desc>
	<defs/>
	<path id="Vector 4780" d="M1031.79 323.49L1108 411.87L791 486.49" stroke="#202027" stroke-opacity="1.000000" stroke-width="1.000000" stroke-linecap="round"/>
	<path id="Vector" d="M1498.68 381.89C1508.11 384.52 1770.51 495.47 1770.51 495.47L1492.11 525.34L1667.98 751.17L1420.03 596.9L1394.77 858.35L1324.88 583.01L1091.93 713.96L1252.41 521.74L967.63 508.74L1235.31 428.5L1036.41 199.41L1316.04 330.98L1380.03 77.16L1408.77 331.53L1663.48 156.09L1498.68 381.89Z" fill="#BCEC30" fill-opacity="1.000000" fill-rule="nonzero"/>
	<path id="Vector" d="M1770.51 495.47L1492.11 525.34L1667.98 751.17L1420.03 596.9L1394.77 858.35L1324.88 583.01L1091.93 713.96L1252.41 521.74L967.63 508.74L1235.31 428.5L1036.41 199.41L1316.04 330.98L1380.03 77.16L1408.77 331.53L1663.48 156.09L1498.68 381.89C1508.11 384.52 1770.51 495.47 1770.51 495.47Z" stroke="#202027" stroke-opacity="1.000000" stroke-width="1.000000"/>
	<path id="Vector 4781" d="M1022.08 587.49L1146 587.49L1004 766.49" stroke="#202027" stroke-opacity="1.000000" stroke-width="1.000000" stroke-linecap="round"/>
	<path id="Vector 4782" d="M1162 791.54L1275.76 712.49L1381.88 1130.5" stroke="#202027" stroke-opacity="1.000000" stroke-width="1.000000" stroke-linecap="round"/>
	<path id="Vector 4788" d="M1240.16 801.49L1184 860.26L1264 927.49L1240.16 801.49Z" fill="#BCEC30" fill-opacity="1.000000" fill-rule="nonzero"/>
	<path id="Vector 4788" d="M1240.16 801.49L1264 927.49L1184 860.26L1240.16 801.49Z" stroke="#202027" stroke-opacity="1.000000" stroke-width="1.000000"/>
	<path id="Star 13" d="M28.5 427.48L20.8 448.28L0 455.98L20.8 463.68L28.5 484.48L36.19 463.68L57 455.98L36.19 448.28L28.5 427.48Z" fill="#BCEC30" fill-opacity="1.000000" fill-rule="evenodd"/>
	<path id="Star 13" d="M20.8 448.28L0 455.98L20.8 463.68L28.5 484.48L36.19 463.68L57 455.98L36.19 448.28L28.5 427.48L20.8 448.28ZM28.5 430.36L21.58 449.06L2.88 455.98L21.58 462.9L28.5 481.6L35.41 462.9L54.11 455.98L35.41 449.06L28.5 430.36Z" fill="#202027" fill-opacity="1.000000" fill-rule="evenodd"/>
	<path id="Star 14" d="M903.5 871.48L898.5 884.99L885 889.98L898.5 894.98L903.5 908.48L908.49 894.98L922 889.98L908.49 884.99L903.5 871.48Z" fill="#BCEC30" fill-opacity="1.000000" fill-rule="evenodd"/>
	<path id="Star 14" d="M898.5 884.99L885 889.98L898.5 894.98L903.5 908.48L908.49 894.98L922 889.98L908.49 884.99L903.5 871.48L898.5 884.99ZM903.5 874.36L899.28 885.76L887.88 889.98L899.28 894.2L903.5 905.6L907.71 894.2L919.11 889.98L907.71 885.76L903.5 874.36Z" fill="#202027" fill-opacity="1.000000" fill-rule="evenodd"/>
	<path id="Star 15" d="M105.77 415.26L93 419.98L105.77 424.71L110.5 437.48L115.22 424.71L128 419.98L115.22 415.26L110.5 402.48L105.77 415.26ZM110.5 405.36L106.55 416.03L95.88 419.98L106.55 423.93L110.5 434.6L114.44 423.93L125.11 419.98L114.44 416.03L110.5 405.36Z" fill="#202027" fill-opacity="1.000000" fill-rule="evenodd"/>
	<path id="Star 16" d="M980.29 931.77L950 942.98L980.29 954.19L991.5 984.48L1002.71 954.19L1033 942.98L1002.71 931.77L991.5 901.48L980.29 931.77ZM991.5 904.36L981.06 932.55L952.88 942.98L981.06 953.41L991.5 981.6L1001.93 953.41L1030.12 942.98L1001.93 932.55L991.5 904.36Z" fill="#202027" fill-opacity="1.000000" fill-rule="evenodd"/>
</svg>
