<svg width="1557.563477" height="804.534668" viewBox="0 0 1557.56 804.535" fill="none" xmlns="http://www.w3.org/2000/svg" xmlns:xlink="http://www.w3.org/1999/xlink">
	<desc>
			Created with Pixso.
	</desc>
	<defs/>
	<path id="Star 1" d="M1172.81 230.58L984.31 170.71L1121.74 312.93L957.4 422.98L1154.29 404.21L1137.87 601.3L1245.93 435.67L1389.79 571.39L1327.69 383.63L1523.49 355.78L1337.96 287.27L1438.28 116.82L1269.04 219.16L1198.31 34.46L1172.81 230.58ZM1198.8 38.51L1173.64 231.89L987.78 172.86L1123.29 313.1L961.25 421.61L1155.38 403.1L1139.18 597.44L1245.76 434.12L1387.6 567.95L1326.36 382.8L1519.43 355.35L1336.5 287.79L1435.41 119.73L1268.53 220.63L1198.8 38.51Z" fill="#BCEC30" fill-opacity="1.000000" fill-rule="evenodd"/>
	<path id="Star 11" d="M13.27 705.47L1.48 708.59L12.47 713.89L15.59 725.68L20.89 714.7L32.68 711.57L21.7 706.27L18.57 694.48L13.27 705.47ZM18.29 697.35L13.97 706.32L4.35 708.87L13.31 713.19L15.87 722.81L20.19 713.85L29.81 711.3L20.85 706.97L18.29 697.35Z" fill="#BCEC30" fill-opacity="1.000000" fill-rule="evenodd"/>
	<path id="Star 12" d="M38.12 766.72L17.58 772.17L36.72 781.4L42.17 801.94L51.4 782.8L71.94 777.35L52.8 768.12L47.35 747.59L38.12 766.72ZM47.08 750.46L38.82 767.57L20.45 772.44L37.57 780.7L42.44 799.07L50.7 781.95L69.07 777.08L51.95 768.82L47.08 750.46Z" fill="#BCEC30" fill-opacity="1.000000" fill-rule="evenodd"/>
</svg>
