<svg width="1865.000000" height="1130.957153" viewBox="0 0 1865 1130.96" fill="none" xmlns="http://www.w3.org/2000/svg" xmlns:xlink="http://www.w3.org/1999/xlink">
	<desc>
			Created with Pixso.
	</desc>
	<defs/>
	<path id="Vector 4780" d="M1031.79 323.45L1108 411.83L791 486.45" stroke="#202027" stroke-opacity="1.000000" stroke-width="1.000000" stroke-linecap="round"/>
	<path id="Vector" d="M1498.68 381.86C1508.11 384.48 1770.52 495.42 1770.52 495.42L1492.11 525.3L1667.99 751.11L1420.04 596.86L1394.77 858.31L1324.88 582.98L1091.93 713.95L1252.41 521.72L967.63 508.74L1235.3 428.48L1036.4 199.41L1316.04 330.96L1380.03 77.14L1408.77 331.5L1663.48 156.05L1498.68 381.86Z" fill="#BCEC30" fill-opacity="1.000000" fill-rule="nonzero"/>
	<path id="Vector" d="M1770.52 495.42L1492.11 525.3L1667.99 751.11L1420.04 596.86L1394.77 858.31L1324.88 582.98L1091.93 713.95L1252.41 521.72L967.63 508.74L1235.3 428.48L1036.4 199.41L1316.04 330.96L1380.03 77.14L1408.77 331.5L1663.48 156.05L1498.68 381.86C1508.11 384.48 1770.52 495.42 1770.52 495.42Z" stroke="#202027" stroke-opacity="1.000000" stroke-width="1.000000"/>
	<path id="Vector 4781" d="M1022.08 587.45L1146 587.45L1004 766.45" stroke="#202027" stroke-opacity="1.000000" stroke-width="1.000000" stroke-linecap="round"/>
	<path id="Vector 4782" d="M1162 791.5L1275.76 712.45L1381.88 1130.46" stroke="#202027" stroke-opacity="1.000000" stroke-width="1.000000" stroke-linecap="round"/>
	<path id="Vector 4788" d="M1240.16 801.45L1184 860.22L1264 927.45L1240.16 801.45Z" fill="#BCEC30" fill-opacity="1.000000" fill-rule="nonzero"/>
	<path id="Vector 4788" d="M1240.16 801.45L1264 927.45L1184 860.22L1240.16 801.45Z" stroke="#202027" stroke-opacity="1.000000" stroke-width="1.000000"/>
	<path id="Vector 4791" d="M1282 996.45L1316 1120.46" stroke="#202027" stroke-opacity="1.000000" stroke-width="1.000000" stroke-linecap="round"/>
	<path id="Star 2" d="M28.5 427.45L20.8 448.25L0 455.95L20.8 463.65L28.5 484.45L36.19 463.65L57 455.95L36.19 448.25L28.5 427.45Z" fill="#BCEC30" fill-opacity="1.000000" fill-rule="evenodd"/>
	<path id="Star 2" d="M20.8 448.25L0 455.95L20.8 463.65L28.5 484.45L36.19 463.65L57 455.95L36.19 448.25L28.5 427.45L20.8 448.25ZM28.5 430.33L21.58 449.03L2.88 455.95L21.58 462.87L28.5 481.57L35.41 462.87L54.11 455.95L35.41 449.03L28.5 430.33Z" fill="#202027" fill-opacity="1.000000" fill-rule="evenodd"/>
	<path id="Star 5" d="M903.5 871.45L898.5 884.96L885 889.95L898.5 894.95L903.5 908.45L908.49 894.95L922 889.95L908.49 884.96L903.5 871.45Z" fill="#BCEC30" fill-opacity="1.000000" fill-rule="evenodd"/>
	<path id="Star 5" d="M898.5 884.96L885 889.95L898.5 894.95L903.5 908.45L908.49 894.95L922 889.95L908.49 884.96L903.5 871.45L898.5 884.96ZM903.5 874.33L899.28 885.73L887.88 889.95L899.28 894.17L903.5 905.57L907.71 894.17L919.11 889.95L907.71 885.73L903.5 874.33Z" fill="#202027" fill-opacity="1.000000" fill-rule="evenodd"/>
	<path id="Star 3" d="M105.77 415.23L93 419.95L105.77 424.68L110.5 437.45L115.22 424.68L128 419.95L115.22 415.23L110.5 402.45L105.77 415.23ZM110.5 405.33L106.55 416L95.88 419.95L106.55 423.9L110.5 434.57L114.44 423.9L125.11 419.95L114.44 416L110.5 405.33Z" fill="#202027" fill-opacity="1.000000" fill-rule="evenodd"/>
	<path id="Star 4" d="M980.29 931.74L950 942.95L980.29 954.16L991.5 984.45L1002.71 954.16L1033 942.95L1002.71 931.74L991.5 901.45L980.29 931.74ZM991.5 904.33L981.06 932.52L952.88 942.95L981.06 953.38L991.5 981.57L1001.93 953.38L1030.12 942.95L1001.93 932.52L991.5 904.33Z" fill="#202027" fill-opacity="1.000000" fill-rule="evenodd"/>
</svg>
